<?xml version="1.0" encoding="UTF-8"?>

<svg version="1.1" baseProfile="tiny" width="105" height="188" viewBox="7811 7019 7299 13098" preserveAspectRatio="xMinYMin slice" fill-rule="evenodd" stroke-width="28.222" stroke-linejoin="round" xmlns="http://www.w3.org/2000/svg" xmlns:ooo="http://xml.openoffice.org/svg/export" xmlns:xlink="http://www.w3.org/1999/xlink" xml:space="preserve">
 <g class="com.sun.star.drawing.ClosedBezierShape">
  <g id="id3">
   <path fill="rgb(255,255,255)" stroke="none" d="M 15074,19171 C 15074,19542 14988,19843 14883,19843 L 8125,19843 C 8020,19843 7935,19542 7935,19171 L 7935,7989 C 7935,7618 8020,7317 8125,7317 L 14883,7317 C 14988,7317 15074,7618 15074,7989 L 15074,19171 Z"/>
  </g>
 </g>
 <g class="com.sun.star.drawing.ClosedBezierShape">
  <g id="id4">
   <path fill="rgb(167,165,166)" stroke="none" d="M 15036,19583 L 14963,19583 C 14963,19627 14944,19668 14914,19698 14885,19728 14844,19746 14799,19746 L 8122,19746 C 8077,19746 8036,19728 8006,19698 7977,19668 7958,19627 7958,19583 L 7958,7475 C 7958,7429 7977,7390 8006,7359 8036,7330 8077,7312 8122,7312 L 14799,7312 C 14844,7312 14885,7330 14914,7359 14944,7390 14963,7429 14963,7475 L 14963,19583 15110,19583 15110,7475 C 15110,7303 14971,7164 14799,7164 L 8122,7164 C 7950,7164 7811,7303 7811,7475 L 7811,19583 C 7811,19754 7950,19893 8122,19893 L 14799,19893 C 14971,19893 15110,19754 15110,19583 L 15036,19583 Z"/>
  </g>
 </g>
 <g class="com.sun.star.drawing.PolyPolygonShape">
  <g id="id5">
   <path fill="rgb(255,255,255)" stroke="none" d="M 10856,7314 L 12067,7314 12067,7150 10856,7150 10856,7314 Z"/>
  </g>
 </g>
 <g class="com.sun.star.drawing.PolyPolygonShape">
  <g id="id6">
   <path fill="rgb(211,210,210)" stroke="none" d="M 10830,7317 L 10873,7317 10873,7049 10830,7049 10830,7317 Z"/>
  </g>
 </g>
 <g class="com.sun.star.drawing.PolyPolygonShape">
  <g id="id7">
   <path fill="none" stroke="rgb(35,31,32)" stroke-width="8" stroke-linejoin="miter" d="M 10830,7317 L 10873,7317 10873,7049 10830,7049 10830,7317 Z"/>
  </g>
 </g>
 <g class="com.sun.star.drawing.PolyPolygonShape">
  <g id="id8">
   <path fill="rgb(211,210,210)" stroke="none" d="M 12043,7317 L 12086,7317 12086,7049 12043,7049 12043,7317 Z"/>
  </g>
 </g>
 <g class="com.sun.star.drawing.PolyPolygonShape">
  <g id="id9">
   <path fill="none" stroke="rgb(35,31,32)" stroke-width="8" stroke-linejoin="miter" d="M 12043,7317 L 12086,7317 12086,7049 12043,7049 12043,7317 Z"/>
  </g>
 </g>
 <g class="com.sun.star.drawing.ClosedBezierShape">
  <g id="id10">
   <path fill="rgb(255,255,255)" stroke="none" d="M 10145,13856 L 10145,15110 C 10145,15177 10171,15240 10219,15288 10266,15335 10329,15361 10396,15361 L 11131,15361 C 11163,15361 11194,15373 11216,15396 11239,15419 11252,15449 11252,15481 L 11252,20100 11382,20102 11382,15481 C 11382,15414 11356,15351 11309,15303 11261,15256 11198,15230 11131,15230 L 10396,15230 C 10364,15230 10334,15218 10311,15195 10289,15173 10276,15142 10276,15110 L 10276,13852 10145,13856 Z"/>
  </g>
 </g>
 <g class="com.sun.star.drawing.OpenBezierShape">
  <g id="id11">
   <path fill="none" stroke="rgb(35,31,32)" stroke-width="23" stroke-linejoin="miter" d="M 10145,13856 L 10145,15110 C 10145,15177 10171,15240 10219,15288 10266,15335 10329,15361 10396,15361 L 11131,15361 C 11163,15361 11194,15373 11216,15396 11239,15419 11252,15449 11252,15481 L 11252,20102 11382,20102 11382,15481 C 11382,15414 11356,15351 11309,15303 11261,15256 11198,15230 11131,15230 L 10396,15230 C 10364,15230 10334,15218 10311,15195 10289,15173 10276,15142 10276,15110 L 10276,13852"/>
  </g>
 </g>
 <g class="com.sun.star.drawing.ClosedBezierShape">
  <g id="id12">
   <path fill="rgb(167,165,166)" stroke="none" d="M 9751,17275 L 9751,17612 C 9751,17679 9777,17742 9825,17789 9872,17837 9935,17863 10002,17863 L 10728,17862 C 10760,17862 10790,17875 10813,17897 10835,17920 10848,17950 10848,17982 L 10848,20100 10979,20100 10979,17982 C 10979,17915 10953,17852 10905,17805 10858,17757 10795,17731 10728,17731 L 10002,17732 C 9970,17732 9940,17719 9918,17697 9895,17674 9882,17644 9882,17612 L 9882,17270 9751,17275 Z"/>
  </g>
 </g>
 <g class="com.sun.star.drawing.OpenBezierShape">
  <g id="id13">
   <path fill="none" stroke="rgb(35,31,32)" stroke-width="23" stroke-linejoin="miter" d="M 9751,17275 L 9751,17612 C 9751,17679 9777,17742 9825,17789 9872,17837 9935,17863 10002,17863 L 10728,17862 C 10760,17862 10790,17875 10813,17897 10835,17920 10848,17950 10848,17982 L 10848,20100 10979,20100 10979,17982 C 10979,17915 10953,17852 10905,17805 10858,17757 10795,17731 10728,17731 L 10002,17732 C 9970,17732 9940,17719 9918,17697 9895,17674 9882,17644 9882,17612 L 9882,17270"/>
  </g>
 </g>
 <g class="com.sun.star.drawing.ClosedBezierShape">
  <g id="id14">
   <path fill="rgb(255,255,255)" stroke="none" d="M 13107,17825 L 13107,19362 C 13107,19429 13081,19493 13034,19540 12986,19588 12923,19614 12856,19614 L 11927,19613 C 11895,19613 11865,19626 11842,19649 11820,19671 11807,19701 11807,19733 L 11791,20102 11676,20102 11676,19733 C 11676,19666 11702,19603 11750,19556 11797,19508 11860,19482 11927,19482 L 12856,19483 C 12888,19483 12918,19470 12941,19447 12964,19424 12976,19394 12976,19362 L 12976,17820 13107,17825 Z"/>
  </g>
 </g>
 <g class="com.sun.star.drawing.OpenBezierShape">
  <g id="id15">
   <path fill="none" stroke="rgb(35,31,32)" stroke-width="23" stroke-linejoin="miter" d="M 13107,17825 L 13107,19362 C 13107,19429 13081,19493 13034,19540 12986,19588 12923,19614 12856,19614 L 11927,19613 C 11895,19613 11865,19626 11842,19649 11820,19671 11807,19701 11807,19733 L 11791,20102 11676,20102 11676,19733 C 11676,19666 11702,19603 11750,19556 11797,19508 11860,19482 11927,19482 L 12856,19483 C 12888,19483 12918,19470 12941,19447 12964,19424 12976,19394 12976,19362 L 12976,17820"/>
  </g>
 </g>
 <g class="com.sun.star.drawing.PolyPolygonShape">
  <g id="id16">
   <path fill="rgb(211,210,210)" stroke="none" d="M 12837,17634 L 12969,17634 12969,17252 12837,17252 12837,17634 Z"/>
  </g>
 </g>
 <g class="com.sun.star.drawing.PolyLineShape">
  <g id="id17">
   <path fill="none" stroke="rgb(35,31,32)" stroke-width="23" stroke-linejoin="miter" d="M 12837,17252 L 12837,17634 12969,17634 12969,17252"/>
  </g>
 </g>
 <g class="com.sun.star.drawing.PolyPolygonShape">
  <g id="id18">
   <path fill="rgb(211,210,210)" stroke="none" d="M 10593,18529 L 10592,20100 10408,20100 10408,18541 10593,18529 Z"/>
  </g>
 </g>
 <g class="com.sun.star.drawing.PolyLineShape">
  <g id="id19">
   <path fill="none" stroke="rgb(35,31,32)" stroke-width="29" stroke-linejoin="miter" d="M 10593,18529 L 10592,20100 10408,20100 10408,18541"/>
  </g>
 </g>
 <g class="com.sun.star.drawing.ClosedBezierShape">
  <g id="id20">
   <path fill="rgb(167,165,166)" stroke="none" d="M 9664,18182 L 9463,18182 C 9317,18182 9198,18063 9198,17918 L 9197,15242 C 9197,15097 9316,14978 9462,14978 L 11195,14979 C 11441,14979 11642,14778 11642,14532 L 11642,10930 11459,10926 11459,14532 C 11459,14677 11340,14796 11195,14796 L 9462,14795 C 9215,14795 9013,14995 9013,15242 L 9015,17918 C 9015,18165 9216,18365 9463,18365 L 9647,18365 9664,18182 Z"/>
  </g>
 </g>
 <g class="com.sun.star.drawing.OpenBezierShape">
  <g id="id21">
   <path fill="none" stroke="rgb(35,31,32)" stroke-width="29" stroke-linejoin="miter" d="M 9664,18182 L 9463,18182 C 9317,18182 9198,18063 9198,17918 L 9197,15242 C 9197,15097 9316,14978 9462,14978 L 11195,14979 C 11441,14979 11642,14778 11642,14532 L 11642,10930 11459,10926 11459,14532 C 11459,14677 11340,14796 11195,14796 L 9462,14795 C 9215,14795 9013,14995 9013,15242 L 9015,17918 C 9015,18165 9216,18365 9463,18365 L 9647,18365"/>
  </g>
 </g>
 <g class="com.sun.star.drawing.PolyPolygonShape">
  <g id="id22">
   <path fill="rgb(167,165,166)" stroke="none" d="M 10023,18016 L 10207,18016 10207,17389 10023,17389 10023,18016 Z"/>
  </g>
 </g>
 <g class="com.sun.star.drawing.PolyPolygonShape">
  <g id="id23">
   <path fill="none" stroke="rgb(35,31,32)" stroke-width="29" stroke-linejoin="miter" d="M 10207,17389 L 10023,17389 10023,18016 10207,18016 10207,17389 Z"/>
  </g>
 </g>
 <g class="com.sun.star.drawing.ClosedBezierShape">
  <g id="id24">
   <path fill="rgb(211,210,210)" stroke="none" d="M 13674,17702 L 14374,17702 C 14407,17702 14437,17690 14459,17667 14482,17644 14495,17614 14495,17582 L 14495,10118 14626,10122 14626,17582 C 14626,17649 14599,17712 14552,17760 14505,17807 14442,17833 14374,17833 L 13674,17833 13674,17702 Z"/>
  </g>
 </g>
 <g class="com.sun.star.drawing.OpenBezierShape">
  <g id="id25">
   <path fill="none" stroke="rgb(35,31,32)" stroke-width="23" stroke-linejoin="miter" d="M 13674,17702 L 14374,17702 C 14407,17702 14437,17690 14459,17667 14482,17644 14495,17614 14495,17582 L 14495,10118 14626,10122 14626,17582 C 14626,17649 14599,17712 14552,17760 14505,17807 14442,17833 14374,17833 L 13674,17833"/>
  </g>
 </g>
 <g class="com.sun.star.drawing.ClosedBezierShape">
  <g id="id26">
   <path fill="rgb(211,210,210)" stroke="none" d="M 12096,17731 L 12096,17582 C 12096,17550 12084,17519 12061,17497 12038,17474 12008,17461 11976,17461 L 10687,17461 C 10655,17461 10625,17474 10602,17497 10580,17519 10567,17550 10567,17582 L 10567,18027 10436,18027 10436,17582 C 10436,17515 10462,17452 10510,17404 10557,17357 10620,17330 10687,17330 L 11976,17330 C 12043,17330 12106,17357 12154,17404 12201,17452 12227,17515 12227,17582 L 12227,17731 12096,17731 Z"/>
  </g>
 </g>
 <g class="com.sun.star.drawing.OpenBezierShape">
  <g id="id27">
   <path fill="none" stroke="rgb(35,31,32)" stroke-width="23" stroke-linejoin="miter" d="M 12096,17731 L 12096,17582 C 12096,17550 12084,17519 12061,17497 12038,17474 12008,17461 11976,17461 L 10687,17461 C 10655,17461 10625,17474 10602,17497 10580,17519 10567,17550 10567,17582 L 10567,18027 10436,18027 10436,17582 C 10436,17515 10462,17452 10510,17404 10557,17357 10620,17330 10687,17330 L 11976,17330 C 12043,17330 12106,17357 12154,17404 12201,17452 12227,17515 12227,17582 L 12227,17731"/>
  </g>
 </g>
 <g class="com.sun.star.drawing.ClosedBezierShape">
  <g id="id28">
   <path fill="rgb(211,210,210)" stroke="none" d="M 13072,18195 L 13230,18195 C 13375,18195 13494,18076 13494,17931 L 13494,15242 C 13494,15097 13375,14978 13230,14978 L 12466,14979 C 12219,14979 12018,14778 12018,14532 L 12018,10930 12201,10926 12201,14532 C 12201,14677 12320,14796 12466,14796 L 13230,14795 C 13476,14795 13677,14995 13677,15242 L 13677,17931 C 13677,18177 13476,18378 13230,18378 L 13063,18378 13072,18195 Z"/>
  </g>
 </g>
 <g class="com.sun.star.drawing.OpenBezierShape">
  <g id="id29">
   <path fill="none" stroke="rgb(35,31,32)" stroke-width="29" stroke-linejoin="miter" d="M 13072,18195 L 13230,18195 C 13375,18195 13494,18076 13494,17931 L 13494,15242 C 13494,15097 13375,14978 13230,14978 L 12466,14979 C 12219,14979 12018,14778 12018,14532 L 12018,10930 12201,10926 12201,14532 C 12201,14677 12320,14796 12466,14796 L 13230,14795 C 13476,14795 13677,14995 13677,15242 L 13677,17931 C 13677,18177 13476,18378 13230,18378 L 13063,18378"/>
  </g>
 </g>
 <g class="com.sun.star.drawing.PolyPolygonShape">
  <g id="id30">
   <path fill="rgb(211,210,210)" stroke="none" d="M 13641,17823 L 13697,17823 13697,17711 13641,17711 13641,17823 Z"/>
  </g>
 </g>
 <g class="com.sun.star.drawing.PolyPolygonShape">
  <g id="id31">
   <path fill="rgb(211,210,210)" stroke="none" d="M 12060,17779 L 12287,17779 12304,17801 12304,18775 12282,18797 12046,18797 12016,18768 12016,18317 11968,18333 11883,18138 12023,18058 12021,17798 12060,17779 Z"/>
  </g>
 </g>
 <g class="com.sun.star.drawing.ClosedBezierShape">
  <g id="id32">
   <path fill="rgb(35,31,32)" stroke="none" d="M 12079,18063 L 12085,18074 12100,18074 12116,18064 12119,18051 12070,17936 C 12063,17920 12035,17867 12035,17853 L 12035,17810 C 12035,17807 12038,17804 12044,17804 L 12107,17804 12107,17756 12044,17756 C 12012,17756 11987,17780 11987,17810 L 11987,17926 11988,18017 C 11988,18017 11980,18056 11938,18081 11906,18099 11779,18158 11779,18158 L 11792,18186 12079,18063 Z"/>
  </g>
 </g>
 <g class="com.sun.star.drawing.ClosedBezierShape">
  <g id="id33">
   <path fill="rgb(35,31,32)" stroke="none" d="M 12285,18092 C 12285,18156 12243,18174 12243,18174 L 12159,18219 12148,18230 12176,18295 12285,18294 12285,18762 C 12285,18765 12282,18768 12277,18768 L 12239,18768 12239,18815 12277,18815 C 12308,18815 12333,18791 12333,18762 L 12333,17809 C 12333,17780 12308,17756 12277,17756 L 12216,17756 12216,17803 12277,17803 C 12282,17803 12285,17806 12285,17809 L 12285,18031 12285,18092 Z"/>
  </g>
 </g>
 <g class="com.sun.star.drawing.PolyPolygonShape">
  <g id="id34">
   <path fill="rgb(255,255,255)" stroke="none" d="M 11917,18189 L 11953,18274 11894,18299 11858,18214 11917,18189 Z"/>
  </g>
 </g>
 <g class="com.sun.star.drawing.ClosedBezierShape">
  <g id="id35">
   <path fill="rgb(35,31,32)" stroke="none" d="M 11967,18355 C 11969,18354 11971,18354 11973,18354 11981,18354 11988,18360 11988,18369 L 11987,18390 11987,18762 C 11987,18791 12013,18815 12044,18815 L 12083,18815 12083,18768 12044,18768 C 12039,18768 12036,18765 12036,18762 L 12036,18294 11865,18366 11876,18393 11967,18355 Z"/>
  </g>
 </g>
 <g class="com.sun.star.drawing.ClosedBezierShape">
  <g id="id36">
   <path fill="rgb(255,255,255)" stroke="none" d="M 11826,18286 L 11851,18276 C 11855,18274 11857,18269 11855,18265 11853,18261 11849,18260 11845,18261 L 11821,18272 11826,18286 Z"/>
  </g>
 </g>
 <g class="com.sun.star.drawing.ClosedBezierShape">
  <g id="id37">
   <path fill="rgb(211,210,211)" stroke="none" d="M 12686,10879 L 13127,10881 13127,8120 C 13127,7889 12939,7695 12716,7695 L 12143,7695 10820,7698 10686,7698 C 10664,7698 10647,7716 10647,7738 10647,7759 10664,7777 10686,7777 L 10868,7777 12143,7773 12716,7773 C 12893,7773 13049,7935 13049,8120 13049,8120 13049,10726 13049,10802 13031,10802 12891,10802 12686,10802 L 10968,10802 C 10778,10802 10694,10802 10694,10802 10672,10802 10655,10820 10655,10842 10655,10863 10672,10881 10694,10881 L 10969,10881 12686,10879 Z"/>
   <path fill="none" stroke="rgb(35,31,32)" stroke-width="29" stroke-linejoin="miter" d="M 12686,10879 L 13127,10881 13127,8120 C 13127,7889 12939,7695 12716,7695 L 12143,7695 10820,7698 10686,7698 C 10664,7698 10647,7716 10647,7738 10647,7759 10664,7777 10686,7777 L 10868,7777 12143,7773 12716,7773 C 12893,7773 13049,7935 13049,8120 13049,8120 13049,10726 13049,10802 13031,10802 12891,10802 12686,10802 L 10968,10802 C 10778,10802 10694,10802 10694,10802 10672,10802 10655,10820 10655,10842 10655,10863 10672,10881 10694,10881 L 10969,10881 12686,10879 Z"/>
  </g>
 </g>
 <g class="com.sun.star.drawing.ClosedBezierShape">
  <g id="id38">
   <path fill="rgb(211,210,210)" stroke="none" d="M 11053,7730 L 11053,7040 11890,7040 11890,7613 C 11890,7660 11976,7802 12114,7802 12251,7802 12114,7862 12114,7862 L 10915,7862 10915,7809 C 10915,7809 11053,7802 11053,7730 Z"/>
  </g>
 </g>
 <g class="com.sun.star.drawing.ClosedBezierShape">
  <g id="id39">
   <path fill="rgb(211,210,210)" stroke="none" d="M 10286,9725 C 10234,9725 10132,9781 10132,9781 10132,9781 9252,10319 9219,10338 9186,10357 9114,10403 9114,10446 9114,10488 9114,10581 9114,10581 L 8736,10576 8736,10355 C 8736,10355 8725,10260 8845,10182 8965,10104 10058,9235 10058,9235 10058,9235 10099,9201 10238,9205 L 10286,9725 Z"/>
  </g>
 </g>
 <g class="com.sun.star.drawing.ClosedBezierShape">
  <g id="id40">
   <path fill="rgb(211,210,210)" stroke="none" d="M 13010,8949 L 13010,10771 10707,10771 10707,10236 10707,9997 10665,9987 10665,9860 10707,9848 10707,9092 10665,9086 10665,8947 10681,8942 10681,8715 10707,8692 10707,7815 12664,7815 C 12817,7815 13016,7891 13016,8133 13016,8374 13010,8949 13010,8949 Z"/>
  </g>
 </g>
 <g class="com.sun.star.drawing.ClosedBezierShape">
  <g id="id41">
   <path fill="rgb(90,87,88)" stroke="none" d="M 10607,9981 L 10607,10645 C 10607,10649 10611,10652 10615,10652 L 10671,10652 C 10675,10652 10678,10649 10678,10645 L 10678,9981 10607,9981 Z"/>
  </g>
 </g>
 <g class="com.sun.star.drawing.PolyPolygonShape">
  <g id="id42">
   <path fill="rgb(90,87,88)" stroke="none" d="M 10592,10210 L 10620,10210 10620,10016 10592,10016 10592,10210 Z"/>
  </g>
 </g>
 <g class="com.sun.star.drawing.ClosedBezierShape">
  <g id="id43">
   <path fill="rgb(90,87,88)" stroke="none" d="M 9330,11922 L 9330,11952 9383,11952 9383,11867 C 9383,11867 9441,11802 9464,11802 L 9464,11916 9742,11916 9742,11810 10276,11810 10276,11346 9491,11346 C 9468,11346 9383,11284 9383,11284 L 9383,11147 9329,11147 9329,11226 9330,11922 Z"/>
  </g>
 </g>
 <g class="com.sun.star.drawing.PolyPolygonShape">
  <g id="id44">
   <path fill="rgb(234,234,234)" stroke="none" d="M 9505,11916 L 9708,11916 9708,11731 9505,11731 9505,11916 Z"/>
  </g>
 </g>
 <g class="com.sun.star.drawing.ClosedBezierShape">
  <g id="id45">
   <path fill="rgb(234,234,234)" stroke="none" d="M 10036,11658 L 10075,11658 10206,11760 9706,11761 9446,11761 C 9446,11761 9369,11770 9345,11802 L 9255,11802 C 9255,11802 9313,11714 9502,11714 9563,11714 10067,11686 10067,11686 L 10067,11673 10036,11658 Z"/>
  </g>
 </g>
 <g class="com.sun.star.drawing.ClosedBezierShape">
  <g id="id46">
   <path fill="rgb(255,255,255)" stroke="none" d="M 10252,11775 L 10078,11645 10036,11645 10036,11659 10075,11659 10067,11674 C 10067,11674 9718,11699 9502,11699 9277,11699 9228,11818 9228,11818 L 9227,11330 C 9227,11330 9271,11448 9501,11450 L 10066,11476 10074,11489 10036,11489 10036,11502 10077,11502 10251,11373 10275,11372 10275,11776 10252,11775 Z"/>
  </g>
 </g>
 <g class="com.sun.star.drawing.ClosedBezierShape">
  <g id="id47">
   <path fill="rgb(234,234,234)" stroke="none" d="M 10066,11475 L 10066,11459 9488,11432 C 9313,11427 9260,11346 9260,11346 L 9344,11346 C 9379,11367 9443,11387 9443,11387 L 10205,11388 10074,11489 10036,11489 10066,11475 Z"/>
  </g>
 </g>
 <g class="com.sun.star.drawing.PolyPolygonShape">
  <g id="id48">
   <path fill="rgb(35,31,32)" stroke="none" d="M 9706,11775 L 10252,11775 10077,11644 10035,11644 10035,11658 10074,11658 10206,11760 9706,11761 9706,11775 Z"/>
  </g>
 </g>
 <g class="com.sun.star.drawing.ClosedBezierShape">
  <g id="id49">
   <path fill="rgb(234,234,234)" stroke="none" d="M 9886,11690 L 10067,11674 10075,11658 10036,11657 10036,11654 9981,11622 C 9873,11578 9886,11690 9886,11690 Z"/>
  </g>
 </g>
 <g class="com.sun.star.drawing.ClosedBezierShape">
  <g id="id50">
   <path fill="rgb(234,234,234)" stroke="none" d="M 9890,11458 L 10066,11473 10074,11488 10036,11488 10036,11492 9977,11528 C 9867,11571 9890,11458 9890,11458 Z"/>
  </g>
 </g>
 <g class="com.sun.star.drawing.ClosedBezierShape">
  <g id="id51">
   <path fill="rgb(35,31,32)" stroke="none" d="M 9345,11346 C 9390,11381 9445,11388 9445,11388 L 10205,11389 10074,11489 10036,11489 10036,11502 10077,11502 10251,11374 9453,11374 C 9402,11369 9348,11328 9348,11328 L 9348,11227 9329,11226 9329,11330 9227,11330 C 9227,11330 9276,11446 9501,11450 9712,11455 10066,11476 10066,11476 L 10066,11460 9488,11433 C 9313,11428 9260,11346 9260,11346 L 9344,11346 9345,11346 Z"/>
  </g>
 </g>
 <g class="com.sun.star.drawing.ClosedBezierShape">
  <g id="id52">
   <path fill="rgb(35,31,32)" stroke="none" d="M 9345,11801 L 9261,11801 C 9261,11801 9314,11720 9489,11715 L 10067,11686 10067,11671 C 10067,11671 9714,11693 9502,11698 9277,11702 9228,11817 9228,11817 L 9330,11817 9330,11922 9348,11922 9348,11826 C 9348,11826 9368,11788 9454,11774 L 9505,11774 9505,11760 9444,11760 C 9444,11760 9378,11768 9345,11801 Z"/>
  </g>
 </g>
 <g class="com.sun.star.drawing.ClosedBezierShape">
  <g id="id53">
   <path fill="rgb(211,210,210)" stroke="none" d="M 8749,11575 L 8749,10970 8772,10970 8772,10470 9062,10470 9062,10519 C 9062,10746 9242,10913 9242,11284 L 9242,11328 9227,11328 9242,11371 9242,11575 8749,11575 Z"/>
  </g>
 </g>
 <g class="com.sun.star.drawing.ClosedBezierShape">
  <g id="id54">
   <path fill="rgb(211,210,210)" stroke="none" d="M 8749,11572 L 8749,12177 8772,12177 8772,12677 9061,12677 9061,12628 C 9061,12401 9242,12234 9242,11863 L 9242,11821 9227,11821 9242,11780 9242,11572 8749,11572 Z"/>
  </g>
 </g>
 <g class="com.sun.star.drawing.OpenBezierShape">
  <g id="id55">
   <path fill="none" stroke="rgb(79,76,77)" stroke-width="73" stroke-linejoin="miter" stroke-linecap="round" d="M 10707,10237 L 10707,10771 13018,10771 C 13018,10771 13018,8236 13018,8147 13018,7939 12871,7802 12706,7802 12671,7802 12431,7802 12127,7802 11994,7802 11904,7699 11904,7585 L 11904,7055"/>
   <path fill="none" stroke="rgb(79,76,77)" stroke-width="73" stroke-linejoin="miter" stroke-linecap="round" d="M 10707,8712 L 10707,7808 C 10707,7808 10763,7808 10866,7808 10965,7808 11039,7785 11039,7711 11039,7654 11039,7056 11039,7056"/>
  </g>
 </g>
 <g class="com.sun.star.drawing.ClosedBezierShape">
  <g id="id56">
   <path fill="rgb(90,87,88)" stroke="none" d="M 9062,10499 C 9072,10499 9080,10507 9080,10516 L 9080,10535 C 9080,10631 9113,10713 9152,10808 9190,10902 9232,11007 9250,11146 L 9324,11146 9324,11327 9223,11327 9223,11284 C 9223,11078 9168,10942 9119,10821 9081,10727 9044,10638 9044,10535 L 9044,10516 C 9044,10507 9052,10499 9062,10499 Z"/>
  </g>
 </g>
 <g class="com.sun.star.drawing.PolyLineShape">
  <g id="id57">
   <path fill="none" stroke="rgb(79,76,77)" stroke-width="52" stroke-linejoin="miter" d="M 8749,11575 L 8749,10970 8773,10970 8773,10470"/>
  </g>
 </g>
 <g class="com.sun.star.drawing.ClosedBezierShape">
  <g id="id58">
   <path fill="rgb(79,76,77)" stroke="none" d="M 8731,11572 L 8731,12195 8755,12195 8755,12695 9079,12695 9079,12612 C 9079,12516 9112,12435 9152,12340 9191,12245 9233,12140 9251,12001 L 9320,12001 9320,11821 9224,11821 9224,11864 C 9224,12069 9168,12206 9118,12326 9080,12421 9044,12509 9044,12612 L 9044,12659 8790,12659 8790,12160 8766,12160 8766,11572 8731,11572 Z"/>
  </g>
 </g>
 <g class="com.sun.star.drawing.ClosedBezierShape">
  <g id="id59">
   <path fill="rgb(123,121,121)" stroke="none" d="M 8819,11575 L 8819,10571 9015,10571 C 9015,10571 9015,10598 9015,10695 9015,10976 9185,10980 9185,11330 9185,11372 9022,11420 9022,11420 L 9022,11453 9262,11527 9262,11575 8819,11575 Z"/>
   <path fill="none" stroke="rgb(255,255,255)" stroke-width="9" stroke-linejoin="miter" d="M 8819,11575 L 8819,10571 9015,10571 C 9015,10571 9015,10598 9015,10695 9015,10976 9185,10980 9185,11330 9185,11372 9022,11420 9022,11420 L 9022,11453 9262,11527 9262,11575 8819,11575 Z"/>
  </g>
 </g>
 <g class="com.sun.star.drawing.ClosedBezierShape">
  <g id="id60">
   <path fill="rgb(123,121,121)" stroke="none" d="M 8819,11571 L 8819,12575 9015,12575 C 9015,12575 9015,12549 9015,12450 9015,12170 9185,12165 9185,11816 9185,11774 9022,11725 9022,11725 L 9022,11692 9262,11619 9262,11571 8819,11571 Z"/>
   <path fill="none" stroke="rgb(255,255,255)" stroke-width="9" stroke-linejoin="miter" d="M 8819,11571 L 8819,12575 9015,12575 C 9015,12575 9015,12549 9015,12450 9015,12170 9185,12165 9185,11816 9185,11774 9022,11725 9022,11725 L 9022,11692 9262,11619 9262,11571 8819,11571 Z"/>
  </g>
 </g>
 <g class="com.sun.star.drawing.ClosedBezierShape">
  <g id="id61">
   <path fill="rgb(123,121,121)" stroke="none" d="M 9270,11590 L 8688,11590 8688,11912 8401,11912 8373,11912 C 8358,11912 8347,11900 8347,11886 L 8347,11861 8347,11286 8347,11261 C 8347,11246 8358,11235 8373,11235 L 8401,11235 8684,11235 8684,11556 9270,11556 9270,11590 Z"/>
   <path fill="none" stroke="rgb(255,255,255)" stroke-width="29" stroke-linejoin="miter" d="M 9270,11590 L 8688,11590 8688,11912 8401,11912 8373,11912 C 8358,11912 8347,11900 8347,11886 L 8347,11861 8347,11286 8347,11261 C 8347,11246 8358,11235 8373,11235 L 8401,11235 8684,11235 8684,11556 9270,11556 9270,11590 Z"/>
  </g>
 </g>
 <g class="com.sun.star.drawing.ClosedBezierShape">
  <g id="id62">
   <path fill="rgb(90,87,88)" stroke="none" d="M 9167,10618 L 9100,10618 C 9096,10618 9093,10621 9092,10623 9089,10627 9088,10631 9089,10635 L 9073,10637 C 9070,10623 9052,10595 9061,10583 L 9100,10583 9167,10583 9167,10618 Z"/>
  </g>
 </g>
 <g class="com.sun.star.drawing.ClosedBezierShape">
  <g id="id63">
   <path fill="rgb(90,87,88)" stroke="none" d="M 8713,10618 L 8747,10618 C 8751,10618 8753,10621 8755,10623 8757,10627 8758,10631 8757,10635 L 8773,10637 C 8777,10623 8795,10595 8786,10583 L 8747,10583 8713,10583 8713,10618 Z"/>
  </g>
 </g>
 <g class="com.sun.star.drawing.ClosedBezierShape">
  <g id="id64">
   <path fill="none" stroke="rgb(35,31,32)" stroke-width="19" stroke-linejoin="miter" d="M 8514,11695 C 8582,11695 8636,11640 8636,11574 8636,11507 8582,11453 8514,11453 8447,11453 8393,11507 8393,11574 8393,11640 8447,11695 8514,11695 Z"/>
  </g>
 </g>
 <g class="com.sun.star.drawing.PolyPolygonShape">
  <g id="id65">
   <path fill="rgb(35,31,32)" stroke="none" d="M 8554,11553 L 8553,11553 8520,11646 8510,11646 8478,11553 8477,11553 8464,11644 8434,11644 8460,11492 8480,11492 8517,11590 8552,11492 8572,11492 8594,11644 8565,11644 8554,11553 Z"/>
  </g>
 </g>
 <g class="com.sun.star.drawing.ClosedBezierShape">
  <g id="id66">
   <path fill="none" stroke="rgb(35,31,32)" stroke-width="52" stroke-linejoin="miter" d="M 9270,11590 L 8686,11590 8686,11912 8401,11912 8373,11912 C 8358,11912 8347,11900 8347,11886 L 8347,11861 8347,11286 8347,11261 C 8347,11246 8358,11235 8373,11235 L 8401,11235 8686,11235 8686,11556 9270,11556 9270,11590 Z"/>
  </g>
 </g>
 <g class="com.sun.star.drawing.PolyPolygonShape">
  <g id="id67">
   <path fill="rgb(90,87,88)" stroke="none" d="M 10280,9698 L 10679,9698 10679,9871 10608,9871 10608,9769 10280,9769 10280,9698 Z"/>
  </g>
 </g>
 <g class="com.sun.star.drawing.ClosedBezierShape">
  <g id="id68">
   <path fill="rgb(90,87,88)" stroke="none" d="M 10678,9251 L 10229,9252 10229,9179 10608,9179 10608,8272 C 10608,8268 10611,8265 10615,8265 L 10671,8265 C 10675,8265 10678,8268 10678,8272 L 10678,9253 10678,9251 Z"/>
  </g>
 </g>
 <g class="com.sun.star.drawing.PolyPolygonShape">
  <g id="id69">
   <path fill="rgb(211,210,210)" stroke="none" d="M 10741,9700 L 10229,9700 10230,9251 10724,9251 10652,9251 10740,9251 10741,9700 Z"/>
  </g>
 </g>
 <g class="com.sun.star.drawing.OpenBezierShape">
  <g id="id70">
   <path fill="none" stroke="rgb(79,76,77)" stroke-width="79" stroke-linejoin="miter" d="M 8736,10586 L 8736,10364 C 8736,10364 8725,10270 8845,10192 8965,10113 10058,9244 10058,9244 10058,9244 10099,9211 10238,9215"/>
   <path fill="none" stroke="rgb(79,76,77)" stroke-width="79" stroke-linejoin="miter" d="M 9114,10591 C 9114,10591 9114,10497 9114,10455 9114,10413 9186,10366 9219,10347 9252,10329 10132,9790 10132,9790 10132,9790 10234,9735 10286,9735"/>
  </g>
 </g>
 <g class="com.sun.star.drawing.PolyPolygonShape">
  <g id="id71">
   <path fill="rgb(90,87,88)" stroke="none" d="M 12547,7828 L 12663,7828 12663,7682 12547,7682 12547,7828 Z"/>
  </g>
 </g>
 <g class="com.sun.star.drawing.PolyPolygonShape">
  <g id="id72">
   <path fill="rgb(211,210,210)" stroke="none" d="M 12566,7837 L 12644,7837 12644,7683 12566,7683 12566,7837 Z"/>
  </g>
 </g>
 <g class="com.sun.star.drawing.PolyPolygonShape">
  <g id="id73">
   <path fill="rgb(211,210,210)" stroke="none" d="M 12520,18006 L 12705,18006 12705,17384 12520,17384 12520,18006 Z"/>
  </g>
 </g>
 <g class="com.sun.star.drawing.PolyLineShape">
  <g id="id74">
   <path fill="none" stroke="rgb(35,31,32)" stroke-width="29" stroke-linejoin="miter" d="M 12520,18006 L 12520,17384 12704,17384 12704,18006"/>
  </g>
 </g>
 <g class="com.sun.star.drawing.PolyPolygonShape">
  <g id="id75">
   <path fill="rgb(211,210,210)" stroke="none" d="M 12067,20102 L 12252,20102 12252,18767 12067,18767 12067,20102 Z"/>
  </g>
 </g>
 <g class="com.sun.star.drawing.PolyLineShape">
  <g id="id76">
   <path fill="none" stroke="rgb(35,31,32)" stroke-width="29" stroke-linejoin="miter" d="M 12252,18767 L 12252,20102 12067,20102 12067,18767"/>
  </g>
 </g>
 <g class="com.sun.star.drawing.PolyPolygonShape">
  <g id="id77">
   <path fill="rgb(211,210,210)" stroke="none" d="M 12095,17797 L 12227,17797 12227,17720 12095,17720 12095,17797 Z"/>
  </g>
 </g>
 <g class="com.sun.star.drawing.PolyLineShape">
  <g id="id78">
   <path fill="none" stroke="rgb(35,31,32)" stroke-width="24" stroke-linejoin="miter" d="M 12227,17797 L 12227,17720 12095,17720 12095,17797"/>
  </g>
 </g>
 <g class="com.sun.star.drawing.PolyPolygonShape">
  <g id="id79">
   <path fill="rgb(211,210,210)" stroke="none" d="M 12513,19001 L 12739,19001 12756,18979 12756,18004 12735,17983 12499,17983 12468,18012 12475,18722 12473,18982 12513,19001 Z"/>
  </g>
 </g>
 <g class="com.sun.star.drawing.ClosedBezierShape">
  <g id="id80">
   <path fill="rgb(35,31,32)" stroke="none" d="M 12738,18018 C 12738,18014 12734,18012 12730,18012 L 12690,18012 12690,17964 12730,17964 C 12760,17964 12785,17988 12785,18018 L 12785,18971 C 12785,19000 12760,19024 12730,19024 L 12695,19024 12695,18977 12730,18977 C 12734,18977 12738,18974 12738,18971 L 12738,18018 Z"/>
  </g>
 </g>
 <g class="com.sun.star.drawing.ClosedBezierShape">
  <g id="id81">
   <path fill="rgb(35,31,32)" stroke="none" d="M 12487,18928 L 12487,18971 C 12487,18974 12491,18977 12495,18977 L 12531,18977 12531,19024 12495,19024 C 12464,19024 12440,19000 12440,18971 L 12440,18854 12440,18764 12440,18310 12440,18018 C 12440,17988 12464,17964 12495,17964 L 12534,17964 12534,18012 12495,18012 C 12491,18012 12487,18014 12487,18018 L 12487,18928 Z"/>
  </g>
 </g>
 <g class="com.sun.star.drawing.ClosedBezierShape">
  <g id="id82">
   <path fill="rgb(255,255,255)" stroke="none" d="M 12356,19152 C 12355,19292 12470,19406 12613,19406 12755,19406 12869,19292 12869,19152 12870,19010 12755,18897 12613,18896 12470,18896 12356,19010 12356,19152 Z"/>
  </g>
 </g>
 <g class="com.sun.star.drawing.OpenBezierShape">
  <g id="id83">
   <path fill="none" stroke="rgb(35,31,32)" stroke-width="15" stroke-linejoin="miter" d="M 12356,19152 C 12355,19292 12470,19406 12613,19406 12755,19406 12869,19292 12869,19152 12870,19010 12755,18897 12613,18896 12470,18896 12356,19010 12356,19152 Z"/>
  </g>
 </g>
 <g class="com.sun.star.drawing.PolyPolygonShape">
  <g id="id84">
   <path fill="rgb(35,31,32)" stroke="none" d="M 12555,19118 L 12604,19254 12618,19254 12666,19118 12667,19118 12687,19251 12729,19251 12692,19031 12663,19032 12608,19172 12557,19032 12527,19032 12495,19251 12538,19251 12555,19118 Z"/>
  </g>
 </g>
 <g class="com.sun.star.drawing.ClosedBezierShape">
  <g id="id85">
   <path fill="rgb(255,255,255)" stroke="none" d="M 12742,18955 L 12742,18766 C 12742,18753 12731,18741 12718,18741 L 12506,18741 C 12494,18741 12483,18753 12483,18766 L 12483,18955 12742,18955 Z"/>
  </g>
 </g>
 <g class="com.sun.star.drawing.ClosedBezierShape">
  <g id="id86">
   <path fill="rgb(123,121,121)" stroke="none" d="M 12583,18859 C 12583,18872 12593,18882 12606,18882 L 12617,18882 C 12632,18882 12642,18872 12642,18859 L 12642,18797 C 12642,18784 12632,18774 12617,18774 L 12606,18774 C 12593,18774 12583,18784 12583,18797 L 12583,18859 Z"/>
  </g>
 </g>
 <g class="com.sun.star.drawing.ClosedBezierShape">
  <g id="id87">
   <path fill="rgb(35,31,32)" stroke="none" d="M 12480,18823 L 12480,18739 C 12481,18739 12482,18740 12484,18740 L 12493,18740 C 12505,18740 12516,18728 12516,18716 L 12516,18646 C 12516,18632 12527,18621 12540,18621 L 12682,18621 C 12694,18621 12704,18630 12707,18642 L 12707,18716 C 12707,18728 12718,18740 12731,18740 L 12740,18740 C 12740,18740 12742,18739 12744,18739 L 12744,18827 C 12744,18831 12742,18834 12741,18836 L 12741,18833 C 12741,18821 12731,18810 12718,18810 L 12662,18810 12662,18770 C 12662,18756 12650,18745 12636,18745 L 12587,18745 C 12572,18745 12561,18756 12561,18770 L 12561,18810 12506,18810 C 12493,18810 12482,18821 12482,18833 L 12482,18835 C 12481,18833 12480,18830 12480,18827 L 12480,18826 C 12480,18826 12480,18825 12480,18824 L 12480,18823 Z"/>
  </g>
 </g>
 <g class="com.sun.star.drawing.PolyPolygonShape">
  <g id="id88">
   <path fill="rgb(211,210,210)" stroke="none" d="M 12737,18378 L 13072,18378 13072,18194 12737,18194 12737,18378 Z"/>
  </g>
 </g>
 <g class="com.sun.star.drawing.PolyLineShape">
  <g id="id89">
   <path fill="none" stroke="rgb(35,31,32)" stroke-width="29" stroke-linejoin="miter" d="M 12737,18194 L 13072,18194 13072,18378 12737,18378"/>
  </g>
 </g>
 <g class="com.sun.star.drawing.PolyPolygonShape">
  <g id="id90">
   <path fill="rgb(211,210,210)" stroke="none" d="M 12723,18364 L 12772,18364 12772,18207 12723,18207 12723,18364 Z"/>
  </g>
 </g>
 <g class="com.sun.star.drawing.PolyPolygonShape">
  <g id="id91">
   <path fill="rgb(211,210,210)" stroke="none" d="M 13049,18364 L 13097,18364 13097,18207 13049,18207 13049,18364 Z"/>
  </g>
 </g>
 <g class="com.sun.star.drawing.PolyPolygonShape">
  <g id="id92">
   <path fill="rgb(211,210,210)" stroke="none" d="M 12299,18541 L 12486,18541 12486,18357 12299,18357 12299,18541 Z"/>
  </g>
 </g>
 <g class="com.sun.star.drawing.PolyLineShape">
  <g id="id93">
   <path fill="none" stroke="rgb(35,31,32)" stroke-width="29" stroke-linejoin="miter" d="M 12486,18541 L 12299,18541 12299,18357 12486,18357"/>
  </g>
 </g>
 <g class="com.sun.star.drawing.PolyPolygonShape">
  <g id="id94">
   <path fill="rgb(211,210,210)" stroke="none" d="M 12453,18528 L 12501,18528 12501,18371 12453,18371 12453,18528 Z"/>
  </g>
 </g>
 <g class="com.sun.star.drawing.PolyPolygonShape">
  <g id="id95">
   <path fill="rgb(211,210,210)" stroke="none" d="M 12274,18528 L 12322,18528 12322,18371 12274,18371 12274,18528 Z"/>
  </g>
 </g>
 <g class="com.sun.star.drawing.PolyPolygonShape">
  <g id="id96">
   <path fill="rgb(211,210,210)" stroke="none" d="M 12534,17416 L 12691,17416 12691,17353 12534,17353 12534,17416 Z"/>
  </g>
 </g>
 <g class="com.sun.star.drawing.PolyPolygonShape">
  <g id="id97">
   <path fill="rgb(167,165,166)" stroke="none" d="M 10693,18173 L 10693,18400 10671,18417 9696,18417 9675,18396 9675,18158 9704,18129 10155,18129 10414,18135 10673,18134 10693,18173 Z"/>
  </g>
 </g>
 <g class="com.sun.star.drawing.ClosedBezierShape">
  <g id="id98">
   <path fill="rgb(35,31,32)" stroke="none" d="M 10669,18194 L 10669,18156 C 10669,18151 10666,18148 10663,18148 L 9710,18148 C 9707,18148 9704,18151 9704,18156 L 9704,18194 9657,18194 9657,18156 C 9657,18125 9681,18101 9710,18101 L 10663,18101 C 10692,18101 10716,18125 10716,18156 L 10716,18390 C 10716,18421 10692,18446 10663,18446 L 9710,18446 C 9681,18446 9657,18421 9657,18390 L 9657,18351 9704,18351 9704,18390 C 9704,18394 9707,18398 9710,18398 L 10663,18398 C 10666,18398 10669,18394 10669,18390 L 10669,18351 10669,18194 Z"/>
  </g>
 </g>
 <g class="com.sun.star.drawing.PolyPolygonShape">
  <g id="id99">
   <path fill="rgb(167,165,166)" stroke="none" d="M 9603,18365 L 9705,18365 9705,18181 9603,18181 9603,18365 Z"/>
  </g>
 </g>
 <g class="com.sun.star.drawing.PolyLineShape">
  <g id="id100">
   <path fill="none" stroke="rgb(35,31,32)" stroke-width="29" stroke-linejoin="miter" d="M 9705,18365 L 9603,18365 9603,18181 9705,18181"/>
  </g>
 </g>
 <g class="com.sun.star.drawing.PolyPolygonShape">
  <g id="id101">
   <path fill="rgb(211,210,210)" stroke="none" d="M 10408,18599 L 10592,18599 10592,18412 10408,18412 10408,18599 Z"/>
  </g>
 </g>
 <g class="com.sun.star.drawing.PolyLineShape">
  <g id="id102">
   <path fill="none" stroke="rgb(35,31,32)" stroke-width="29" stroke-linejoin="miter" d="M 10408,18599 L 10408,18412 10592,18412 10592,18599"/>
  </g>
 </g>
 <g class="com.sun.star.drawing.PolyPolygonShape">
  <g id="id103">
   <path fill="rgb(211,210,210)" stroke="none" d="M 10421,18614 L 10579,18614 10579,18566 10421,18566 10421,18614 Z"/>
  </g>
 </g>
 <g class="com.sun.star.drawing.PolyPolygonShape">
  <g id="id104">
   <path fill="rgb(211,210,210)" stroke="none" d="M 10421,18436 L 10579,18436 10579,18388 10421,18388 10421,18436 Z"/>
  </g>
 </g>
 <g class="com.sun.star.drawing.PolyPolygonShape">
  <g id="id105">
   <path fill="rgb(211,210,210)" stroke="none" d="M 10436,18126 L 10568,18126 10568,18018 10436,18018 10436,18126 Z"/>
  </g>
 </g>
 <g class="com.sun.star.drawing.PolyLineShape">
  <g id="id106">
   <path fill="none" stroke="rgb(35,31,32)" stroke-width="23" stroke-linejoin="miter" d="M 10436,18018 L 10436,18126 10568,18126 10568,18018"/>
  </g>
 </g>
 <g class="com.sun.star.drawing.PolyPolygonShape">
  <g id="id107">
   <path fill="rgb(211,210,210)" stroke="none" d="M 10447,18151 L 10558,18151 10558,18103 10447,18103 10447,18151 Z"/>
  </g>
 </g>
 <g class="com.sun.star.drawing.PolyPolygonShape">
  <g id="id108">
   <path fill="rgb(167,165,166)" stroke="none" d="M 10023,18126 L 10207,18126 10207,17939 10023,17939 10023,18126 Z"/>
  </g>
 </g>
 <g class="com.sun.star.drawing.PolyLineShape">
  <g id="id109">
   <path fill="none" stroke="rgb(35,31,32)" stroke-width="29" stroke-linejoin="miter" d="M 10023,17939 L 10023,18126 10207,18126 10207,17939"/>
  </g>
 </g>
 <g class="com.sun.star.drawing.PolyPolygonShape">
  <g id="id110">
   <path fill="rgb(167,165,166)" stroke="none" d="M 10036,17973 L 10194,17973 10194,17925 10036,17925 10036,17973 Z"/>
  </g>
 </g>
 <g class="com.sun.star.drawing.PolyPolygonShape">
  <g id="id111">
   <path fill="rgb(167,165,166)" stroke="none" d="M 10036,18151 L 10194,18151 10194,18103 10036,18103 10036,18151 Z"/>
  </g>
 </g>
 <g class="com.sun.star.drawing.PolyPolygonShape">
  <g id="id112">
   <path fill="rgb(211,210,210)" stroke="none" d="M 12106,17812 L 12217,17812 12217,17682 12106,17682 12106,17812 Z"/>
  </g>
 </g>
 <g class="com.sun.star.drawing.PolyPolygonShape">
  <g id="id113">
   <path fill="rgb(167,165,166)" stroke="none" d="M 9574,18352 L 9636,18352 9636,18194 9574,18194 9574,18352 Z"/>
  </g>
 </g>
 <g class="com.sun.star.drawing.ClosedBezierShape">
  <g id="id114">
   <path fill="rgb(123,121,121)" stroke="none" d="M 12739,18455 C 12739,18526 12682,18583 12612,18582 12542,18582 12486,18525 12486,18455 12486,18385 12542,18328 12612,18328 12682,18328 12739,18385 12739,18455 Z"/>
  </g>
 </g>
 <g class="com.sun.star.drawing.OpenBezierShape">
  <g id="id115">
   <path fill="none" stroke="rgb(35,31,32)" stroke-width="8" stroke-linejoin="miter" d="M 12739,18455 C 12739,18526 12682,18583 12612,18582 12542,18582 12486,18525 12486,18455 12486,18385 12542,18328 12612,18328 12682,18328 12739,18385 12739,18455 Z"/>
  </g>
 </g>
 <g class="com.sun.star.drawing.ClosedBezierShape">
  <g id="id116">
   <path fill="rgb(123,121,121)" stroke="none" d="M 12595,18853 C 12595,18859 12599,18864 12607,18864 12613,18864 12618,18859 12630,18853 L 12630,18471 C 12618,18464 12613,18460 12607,18460 12599,18460 12595,18464 12595,18471 L 12595,18853 Z"/>
  </g>
 </g>
 <g class="com.sun.star.drawing.ClosedBezierShape">
  <g id="id117">
   <path fill="rgb(211,210,210)" stroke="none" d="M 10039,17207 L 9611,17207 C 9570,17207 9536,17174 9536,17133 L 9536,16092 C 9536,16051 9570,16017 9611,16017 L 13080,16017 C 13121,16017 13154,16051 13154,16092 L 13154,17133 C 13154,17174 13121,17207 13080,17207 L 12694,17207 10039,17207 Z"/>
  </g>
 </g>
 <g class="com.sun.star.drawing.OpenBezierShape">
  <g id="id118">
   <path fill="none" stroke="rgb(35,31,32)" stroke-width="58" stroke-linejoin="miter" d="M 10039,17207 L 9611,17207 C 9570,17207 9536,17174 9536,17133 L 9536,16092 C 9536,16051 9570,16017 9611,16017 L 13080,16017 C 13121,16017 13154,16051 13154,16092 L 13154,17133 C 13154,17174 13121,17207 13080,17207 L 12694,17207"/>
  </g>
 </g>
 <g class="com.sun.star.drawing.PolyPolygonShape">
  <g id="id119">
   <path fill="rgb(167,165,166)" stroke="none" d="M 10023,17399 L 10207,17399 10207,17180 10023,17180 10023,17399 Z"/>
  </g>
 </g>
 <g class="com.sun.star.drawing.PolyLineShape">
  <g id="id120">
   <path fill="none" stroke="rgb(35,31,32)" stroke-width="29" stroke-linejoin="round" d="M 10207,17180 L 10207,17399 10023,17399 10023,17180"/>
  </g>
 </g>
 <g class="com.sun.star.drawing.PolyPolygonShape">
  <g id="id121"/>
 </g>
 <g class="com.sun.star.drawing.LineShape">
  <g id="id122">
   <path fill="none" stroke="rgb(35,31,32)" stroke-width="58" stroke-linejoin="miter" d="M 12533,17206 L 10195,17206"/>
  </g>
 </g>
 <g class="com.sun.star.drawing.PolyPolygonShape">
  <g id="id123">
   <path fill="rgb(211,210,210)" stroke="none" d="M 12519,17414 L 12704,17414 12704,17181 12519,17181 12519,17414 Z"/>
  </g>
 </g>
 <g class="com.sun.star.drawing.PolyLineShape">
  <g id="id124">
   <path fill="none" stroke="rgb(35,31,32)" stroke-width="29" stroke-linejoin="miter" d="M 12704,17181 L 12704,17414 12519,17414 12519,17181"/>
  </g>
 </g>
 <g class="com.sun.star.drawing.PolyPolygonShape">
  <g id="id125">
   <path fill="rgb(211,210,210)" stroke="none" d="M 12532,17437 L 12690,17437 12690,17374 12532,17374 12532,17437 Z"/>
  </g>
 </g>
 <g class="com.sun.star.drawing.PolyPolygonShape">
  <g id="id126">
   <path fill="rgb(167,165,166)" stroke="none" d="M 10036,17437 L 10194,17437 10194,17374 10036,17374 10036,17437 Z"/>
  </g>
 </g>
 <g class="com.sun.star.drawing.PolyPolygonShape">
  <g id="id127">
   <path fill="rgb(167,165,166)" stroke="none" d="M 9760,17321 L 9872,17321 9872,17248 9760,17248 9760,17321 Z"/>
  </g>
 </g>
 <g class="com.sun.star.drawing.PolyPolygonShape">
  <g id="id128">
   <path fill="rgb(211,210,210)" stroke="none" d="M 12845,17332 L 12956,17332 12956,17260 12845,17260 12845,17332 Z"/>
  </g>
 </g>
 <g class="com.sun.star.drawing.ClosedBezierShape">
  <g id="id129">
   <path fill="rgb(35,31,32)" stroke="none" d="M 10280,12328 L 10280,12567 10398,12567 10398,12844 10280,12844 10280,13083 10339,13083 10339,13903 9375,13903 C 9312,13903 9287,13869 9287,13811 L 9287,12333 C 9287,12305 9296,12287 9334,12287 L 9346,12287 9346,12128 9960,12128 9960,12287 10238,12287 C 10277,12287 10280,12312 10280,12328 Z"/>
  </g>
 </g>
 <g class="com.sun.star.drawing.PolyPolygonShape">
  <g id="id130">
   <path fill="rgb(35,31,32)" stroke="none" d="M 9464,11824 L 9464,12140 9743,12140 9743,11824 9464,11824 Z"/>
  </g>
 </g>
 <g class="com.sun.star.drawing.PolyPolygonShape">
  <g id="id131">
   <path fill="rgb(234,234,234)" stroke="none" d="M 9505,12175 L 9708,12175 9708,11822 9505,11822 9505,12175 Z"/>
  </g>
 </g>
 <g class="com.sun.star.drawing.ClosedBezierShape">
  <g id="id132">
   <path fill="rgb(235,234,234)" stroke="none" d="M 10160,12968 C 10160,12912 10171,12917 10131,12877 L 10131,12510 C 10171,12481 10160,12475 10160,12418 L 10161,12361 10201,12361 10201,12641 10398,12641 10398,12769 10201,12769 10201,13003 10163,13003 10160,12968 Z"/>
  </g>
 </g>
 <g class="com.sun.star.drawing.ClosedBezierShape">
  <g id="id133">
   <path fill="rgb(255,255,255)" stroke="none" d="M 10161,12418 C 10161,12475 10172,12481 10132,12509 L 10132,12877 C 10172,12917 10161,12912 10161,12968 L 10161,13003 10020,13004 9979,13004 9979,13087 10020,13087 10020,13839 9352,13839 9352,12432 9402,12432 9402,12287 9378,12287 9378,12158 9925,12158 9925,12361 10021,12361 10021,12423 10081,12423 10081,12361 10162,12361 10161,12418 Z"/>
  </g>
 </g>
 <g class="com.sun.star.drawing.OpenBezierShape">
  <g id="id134">
   <path fill="none" stroke="rgb(35,31,32)" stroke-width="21" stroke-linejoin="miter" d="M 10161,13044 L 10161,12968 C 10161,12912 10171,12917 10130,12877 L 10130,12509 C 10171,12481 10161,12475 10161,12418 L 10161,12347"/>
  </g>
 </g>
 <g class="com.sun.star.drawing.PolyPolygonShape">
  <g id="id135">
   <path fill="rgb(35,31,32)" stroke="none" d="M 9698,13194 L 9698,13015 9782,13015 9782,13173 9764,13194 9698,13194 Z"/>
  </g>
 </g>
 <g class="com.sun.star.drawing.PolyPolygonShape">
  <g id="id136">
   <path fill="rgb(35,31,32)" stroke="none" d="M 9782,13862 L 9782,13439 9767,13418 9698,13418 9698,13843 9782,13862 Z"/>
  </g>
 </g>
 <g class="com.sun.star.drawing.PolyPolygonShape">
  <g id="id137">
   <path fill="rgb(35,31,32)" stroke="none" d="M 9698,13086 L 9894,13086 9894,13004 9698,13004 9698,13086 Z"/>
  </g>
 </g>
 <g class="com.sun.star.drawing.PolyPolygonShape">
  <g id="id138">
   <path fill="rgb(35,31,32)" stroke="none" d="M 10021,12419 L 10021,12684 10082,12684 10082,12419 10021,12419 Z"/>
  </g>
 </g>
 <g class="com.sun.star.drawing.PolyPolygonShape">
  <g id="id139">
   <path fill="rgb(35,31,32)" stroke="none" d="M 10021,12723 L 10021,13014 10082,13014 10082,12723 10021,12723 Z"/>
  </g>
 </g>
 <g class="com.sun.star.drawing.PolyLineShape">
  <g id="id140">
   <path fill="none" stroke="rgb(35,31,32)" stroke-width="23" stroke-linejoin="miter" stroke-linecap="round" d="M 10142,12868 L 10142,12521"/>
   <path fill="none" stroke="rgb(35,31,32)" stroke-width="23" stroke-linejoin="miter" stroke-linecap="round" d="M 9530,13564 L 9530,13034"/>
  </g>
 </g>
 <g class="com.sun.star.drawing.OpenBezierShape">
  <g id="id141">
   <path fill="none" stroke="rgb(35,31,32)" stroke-width="21" stroke-linejoin="miter" d="M 9467,13857 L 9467,13715 C 9467,13628 9566,13654 9519,13574 L 9519,13016 C 9566,12937 9467,12963 9467,12876 L 9467,12769"/>
  </g>
 </g>
 <g class="com.sun.star.drawing.PolyPolygonShape">
  <g id="id142">
   <path fill="rgb(35,31,32)" stroke="none" d="M 9706,12242 L 9706,12136 9746,12136 9746,12209 9881,12209 9881,12361 9781,12361 9781,13024 9721,13024 9706,13010 9706,12242 Z"/>
  </g>
 </g>
 <g class="com.sun.star.drawing.PolyPolygonShape">
  <g id="id143">
   <path fill="rgb(35,31,32)" stroke="none" d="M 9471,12242 L 9471,12109 9507,12109 9507,12253 9506,12253 9506,12785 9441,12785 9441,12242 9471,12242 Z"/>
  </g>
 </g>
 <g class="com.sun.star.drawing.LineShape">
  <g id="id144">
   <path fill="none" stroke="rgb(235,234,234)" stroke-width="14" stroke-linejoin="miter" d="M 10281,12951 L 10200,12951"/>
  </g>
 </g>
 <g class="com.sun.star.drawing.ClosedBezierShape">
  <g id="id145">
   <path fill="rgb(234,234,234)" stroke="none" d="M 10344,13866 C 10343,13821 10344,13495 10344,13495 L 10182,13493 10179,13593 10207,13593 10211,13716 10066,13716 C 10066,13716 10068,13795 10068,13872 L 10347,13872 10344,13866 Z"/>
  </g>
 </g>
 <g class="com.sun.star.drawing.PolyPolygonShape">
  <g id="id146">
   <path fill="rgb(234,234,234)" stroke="none" d="M 10217,13743 L 10215,13485 10351,13487 10352,13087 10076,13119 10075,13221 10010,13221 10010,13329 10075,13329 10074,13743 10217,13743 Z"/>
  </g>
 </g>
 <g class="com.sun.star.drawing.ClosedBezierShape">
  <g id="id147">
   <path fill="rgb(35,31,32)" stroke="none" d="M 10051,13329 L 10051,13885 C 10051,13890 10055,13894 10060,13894 L 10074,13894 C 10079,13894 10082,13890 10082,13885 L 10082,13762 C 10082,13753 10089,13745 10098,13745 L 10169,13745 10187,13745 C 10190,13745 10192,13743 10192,13741 L 10192,13721 10196,13714 10098,13714 C 10089,13714 10082,13707 10082,13698 L 10082,13378 C 10082,13369 10089,13362 10098,13362 L 10169,13362 10187,13362 C 10190,13362 10192,13360 10192,13357 L 10192,13337 10196,13329 10108,13329 10051,13329 Z"/>
  </g>
 </g>
 <g class="com.sun.star.drawing.ClosedBezierShape">
  <g id="id148">
   <path fill="rgb(35,31,32)" stroke="none" d="M 10339,13331 L 10339,13392 10338,13463 C 10338,13472 10332,13480 10323,13480 L 10186,13480 10178,13480 C 10176,13480 10173,13483 10173,13485 L 10173,13492 10173,13595 C 10173,13597 10175,13599 10178,13599 L 10184,13599 10203,13599 10199,13592 10199,13516 C 10199,13514 10201,13512 10204,13512 L 10323,13512 C 10332,13512 10339,13519 10339,13528 L 10339,13599 10371,13599 10371,13331 10339,13331 Z"/>
  </g>
 </g>
 <g class="com.sun.star.drawing.ClosedBezierShape">
  <g id="id149">
   <path fill="rgb(35,31,32)" stroke="none" d="M 10369,13882 L 10762,13882 C 10778,13882 10803,13873 10803,13846 L 10803,13109 10803,13093 C 10803,13078 10791,13064 10774,13064 L 10074,13064 10074,13084 10058,13084 10058,13221 10202,13221 10198,13214 10198,13138 C 10198,13135 10200,13133 10203,13133 L 10321,13133 C 10330,13133 10337,13141 10337,13149 L 10337,13212 10369,13212 10369,13096 10770,13096 10770,13849 10369,13849 10369,13722 10337,13722 10337,13903 10369,13882 Z"/>
  </g>
 </g>
 <g class="com.sun.star.drawing.ClosedBezierShape">
  <g id="id150">
   <path fill="rgb(167,165,166)" stroke="none" d="M 10753,13204 C 10753,13209 10749,13214 10744,13214 L 10388,13214 C 10383,13214 10379,13209 10379,13204 L 10379,13114 C 10379,13109 10383,13105 10388,13105 L 10744,13105 C 10749,13105 10753,13109 10753,13114 L 10753,13204 Z"/>
  </g>
 </g>
 <g class="com.sun.star.drawing.ClosedBezierShape">
  <g id="id151">
   <path fill="rgb(167,165,166)" stroke="none" d="M 10753,13432 C 10753,13436 10749,13440 10744,13440 L 10388,13440 C 10383,13440 10379,13436 10379,13432 L 10379,13340 C 10379,13336 10383,13332 10388,13332 L 10744,13332 C 10749,13332 10753,13336 10753,13340 L 10753,13432 Z"/>
  </g>
 </g>
 <g class="com.sun.star.drawing.ClosedBezierShape">
  <g id="id152">
   <path fill="rgb(167,165,166)" stroke="none" d="M 10753,13589 C 10753,13593 10749,13597 10744,13597 L 10388,13597 C 10383,13597 10379,13593 10379,13589 L 10379,13497 C 10379,13493 10383,13489 10388,13489 L 10744,13489 C 10749,13489 10753,13493 10753,13497 L 10753,13589 Z"/>
  </g>
 </g>
 <g class="com.sun.star.drawing.ClosedBezierShape">
  <g id="id153">
   <path fill="rgb(167,165,166)" stroke="none" d="M 10753,13818 C 10753,13823 10749,13827 10744,13827 L 10388,13827 C 10383,13827 10379,13823 10379,13818 L 10379,13727 C 10379,13722 10383,13719 10388,13719 L 10744,13719 C 10749,13719 10753,13722 10753,13727 L 10753,13818 Z"/>
  </g>
 </g>
 <g class="com.sun.star.drawing.PolyPolygonShape">
  <g id="id154">
   <path fill="rgb(234,234,234)" stroke="none" d="M 10156,13918 L 10267,13918 10267,13869 10156,13869 10156,13918 Z"/>
  </g>
 </g>
 <g class="com.sun.star.drawing.ClosedBezierShape">
  <g id="id155">
   <path fill="rgb(189,188,188)" stroke="none" d="M 14418,10118 C 14385,10118 14290,10081 14290,10002 L 14290,7906 C 14290,7786 14337,7763 14388,7763 L 14626,7763 C 14658,7763 14719,7827 14719,7906 L 14719,10002 C 14719,10081 14626,10118 14594,10118 L 14418,10118 Z"/>
   <path fill="none" stroke="rgb(35,31,32)" stroke-width="29" stroke-linejoin="miter" d="M 14418,10118 C 14385,10118 14290,10081 14290,10002 L 14290,7906 C 14290,7786 14337,7763 14388,7763 L 14626,7763 C 14658,7763 14719,7827 14719,7906 L 14719,10002 C 14719,10081 14626,10118 14594,10118 L 14418,10118 Z"/>
  </g>
 </g>
 <g class="com.sun.star.drawing.ClosedBezierShape">
  <g id="id156">
   <path fill="rgb(211,210,210)" stroke="none" d="M 14497,10147 L 14497,10118 14452,10118 C 14439,9031 14601,8818 14473,7763 L 14627,7763 C 14675,7763 14720,7786 14720,7906 L 14720,10002 C 14720,10051 14684,10084 14624,10102 L 14624,10144 14497,10147 Z"/>
  </g>
 </g>
 <g class="com.sun.star.drawing.OpenBezierShape">
  <g id="id157">
   <path fill="none" stroke="rgb(35,31,32)" stroke-width="29" stroke-linejoin="miter" d="M 14497,10147 L 14497,10118 14452,10118 C 14439,9031 14601,8818 14473,7763 L 14627,7763 C 14675,7763 14720,7786 14720,7906 L 14720,10002 C 14720,10051 14684,10084 14624,10102 L 14624,10144"/>
  </g>
 </g>
 <g class="com.sun.star.drawing.ClosedBezierShape">
  <g id="id158">
   <path fill="rgb(255,255,255)" stroke="none" d="M 13579,16633 C 13454,16633 13351,16530 13351,16404 13351,16279 13454,16177 13579,16177 13705,16177 13807,16279 13807,16404 13807,16530 13705,16633 13579,16633 Z"/>
   <path fill="none" stroke="rgb(35,31,32)" stroke-width="17" stroke-linejoin="miter" d="M 13579,16633 C 13454,16633 13351,16530 13351,16404 13351,16279 13454,16177 13579,16177 13705,16177 13807,16279 13807,16404 13807,16530 13705,16633 13579,16633 Z"/>
  </g>
 </g>
 <g class="com.sun.star.drawing.PolyPolygonShape">
  <g id="id159">
   <path fill="rgb(35,31,32)" stroke="none" d="M 13579,16186 L 13764,16509 13393,16509 13579,16186 Z"/>
   <path fill="none" stroke="rgb(35,31,32)" stroke-width="17" stroke-linejoin="miter" d="M 13579,16186 L 13764,16509 13393,16509 13579,16186 Z"/>
  </g>
 </g>
 <g class="com.sun.star.drawing.ClosedBezierShape">
  <g id="id160">
   <path fill="rgb(200,199,199)" stroke="none" d="M 10556,11486 C 10561,11483 10565,11482 10568,11484 10572,11486 10574,11490 10574,11495 L 10574,11552 10574,11551 10725,11551 C 10739,11551 10751,11563 10751,11577 10751,11590 10739,11601 10725,11601 L 10574,11601 10574,11658 C 10574,11663 10572,11667 10568,11669 10565,11671 10561,11670 10556,11667 L 10386,11585 C 10382,11583 10379,11580 10379,11576 10379,11572 10382,11569 10386,11566 L 10556,11486 Z"/>
  </g>
 </g>
 <g class="com.sun.star.drawing.ClosedBezierShape">
  <g id="id161">
   <path fill="rgb(255,255,255)" stroke="none" d="M 12760,17523 C 12760,17489 12787,17461 12821,17461 L 13107,17461 C 13141,17461 13169,17489 13169,17523 L 13169,17809 C 13169,17843 13141,17870 13107,17870 L 12821,17870 C 12787,17870 12760,17843 12760,17809 L 12760,17523 Z"/>
   <path fill="none" stroke="rgb(35,31,32)" stroke-width="23" stroke-linejoin="miter" d="M 12760,17523 C 12760,17489 12787,17461 12821,17461 L 13107,17461 C 13141,17461 13169,17489 13169,17523 L 13169,17809 C 13169,17843 13141,17870 13107,17870 L 12821,17870 C 12787,17870 12760,17843 12760,17809 L 12760,17523 Z"/>
  </g>
 </g>
 <g class="com.sun.star.drawing.ClosedBezierShape">
  <g id="id162">
   <path fill="rgb(35,31,32)" stroke="none" d="M 13091,17664 C 13091,17732 13036,17788 12968,17788 12900,17788 12844,17732 12844,17664 12844,17596 12900,17541 12968,17541 13035,17541 13091,17596 13091,17664 Z"/>
  </g>
 </g>
 <g class="com.sun.star.drawing.ClosedBezierShape">
  <g id="id163">
   <path fill="rgb(35,31,32)" stroke="none" d="M 12864,17517 C 12864,17510 12869,17503 12876,17503 L 12929,17503 C 12936,17503 12941,17510 12941,17517 L 12941,17590 C 12941,17597 12936,17603 12929,17603 L 12876,17603 C 12869,17603 12864,17597 12864,17590 L 12864,17517 Z"/>
  </g>
 </g>
 <g class="com.sun.star.drawing.ClosedBezierShape">
  <g id="id164">
   <path fill="rgb(35,31,32)" stroke="none" d="M 13001,17728 C 13001,17722 13006,17716 13013,17716 L 13066,17716 C 13073,17716 13078,17722 13078,17728 L 13078,17802 C 13078,17809 13073,17815 13066,17815 L 13013,17815 C 13006,17815 13001,17809 13001,17802 L 13001,17728 Z"/>
  </g>
 </g>
 <g class="com.sun.star.drawing.ClosedBezierShape">
  <g id="id165">
   <path fill="rgb(255,255,255)" stroke="none" d="M 13046,17665 C 13046,17708 13011,17744 12968,17744 12923,17744 12888,17708 12888,17665 12888,17621 12923,17585 12968,17585 13011,17585 13046,17620 13046,17665 Z"/>
  </g>
 </g>
 <g class="com.sun.star.drawing.ClosedBezierShape">
  <g id="id166">
   <path fill="rgb(35,31,32)" stroke="none" d="M 12961,17666 L 13012,17716 C 12986,17739 12945,17738 12920,17713 L 12916,17710 12961,17666 Z M 13011,17613 L 12960,17664 12917,17621 12919,17618 C 12944,17592 12985,17591 13011,17613 Z"/>
  </g>
 </g>
 <g class="com.sun.star.drawing.ClosedBezierShape">
  <g id="id167">
   <path fill="rgb(255,255,255)" stroke="none" d="M 12917,17620 L 12961,17664 12962,17666 12916,17710 C 12894,17684 12894,17646 12917,17620 Z"/>
  </g>
 </g>
 <g class="com.sun.star.drawing.PolyPolygonShape">
  <g id="id168"/>
 </g>
 <g class="com.sun.star.drawing.PolyPolygonShape">
  <g id="id169">
   <path fill="rgb(35,31,32)" stroke="none" d="M 12962,17665 L 12962,17667 12960,17663 12962,17665 Z"/>
  </g>
 </g>
 <g class="com.sun.star.drawing.ClosedBezierShape">
  <g id="id170">
   <path fill="rgb(255,255,255)" stroke="none" d="M 13012,17716 L 12961,17665 12960,17663 13011,17613 C 13013,17614 13014,17615 13016,17617 13042,17643 13042,17686 13016,17713 L 13012,17716 Z"/>
  </g>
 </g>
</svg>