<?xml version="1.0" encoding="UTF-8"?>
<svg version="1.1" baseProfile="tiny" width="161" height="52" viewBox="0 0 5640 1830" preserveAspectRatio="xMinYMin slice" fill-rule="evenodd" stroke-width="28.222" stroke-linejoin="round" xmlns="http://www.w3.org/2000/svg" xmlns:ooo="http://xml.openoffice.org/svg/export" xml:space="preserve">
 <g class="com.sun.star.drawing.ClosedBezierShape">
  <g id="id3">
   <rect class="BoundingBox" stroke="none" fill="none" x="3904" y="324" width="1000" height="109"/>
   <path fill="none" stroke="rgb(35,31,32)" stroke-width="43" stroke-linejoin="round" d="M 4856,410 C 4886,402 4881,402 4881,372 L 4881,364 4878,356 4868,351 4856,346 3951,346 3944,351 3936,356 3926,364 3926,395 3936,402 3951,410 4856,410 Z"/>
  </g>
 </g>
 <g class="com.sun.star.drawing.PolyPolygonShape">
  <g id="id4">
   <rect class="BoundingBox" stroke="none" fill="none" x="4066" y="657" width="175" height="172"/>
   <path fill="none" stroke="rgb(35,31,32)" stroke-width="43" stroke-linejoin="round" d="M 4218,743 L 4210,710 4185,687 4154,679 4121,687 4096,710 4088,743 4096,773 4121,799 4154,806 4185,799 4210,773 4218,743 Z"/>
  </g>
 </g>
 <g class="com.sun.star.drawing.OpenBezierShape">
  <g id="id5">
   <rect class="BoundingBox" stroke="none" fill="none" x="3935" y="387" width="945" height="568"/>
   <path fill="none" stroke="rgb(35,31,32)" stroke-width="43" stroke-linejoin="round" d="M 3958,409 C 3943,664 4188,644 4375,662 L 4375,912 4380,915 C 4385,930 4392,932 4408,932 L 4425,932 4443,915 4443,912 4446,902 4446,659 C 4643,652 4862,662 4857,409"/>
  </g>
 </g>
 <g class="com.sun.star.drawing.LineShape">
  <g id="id6">
   <rect class="BoundingBox" stroke="none" fill="none" x="1288" y="1353" width="45" height="335"/>
   <path fill="none" stroke="rgb(35,31,32)" stroke-width="43" stroke-linejoin="round" d="M 1310,1665 L 1310,1375"/>
  </g>
 </g>
 <g class="com.sun.star.drawing.PolyLineShape">
  <g id="id7">
   <rect class="BoundingBox" stroke="none" fill="none" x="710" y="1353" width="624" height="336"/>
   <path fill="none" stroke="rgb(35,31,32)" stroke-width="43" stroke-linejoin="round" d="M 732,1375 L 732,1666 1020,1524 1311,1666"/>
  </g>
 </g>
 <g class="com.sun.star.drawing.PolyPolygonShape">
  <g id="id8">
   <rect class="BoundingBox" stroke="none" fill="none" x="854" y="1502" width="339" height="331"/>
   <path fill="none" stroke="rgb(35,31,32)" stroke-width="43" stroke-linejoin="round" d="M 876,1810 L 1020,1524 1170,1810 876,1810 Z"/>
  </g>
 </g>
 <g class="com.sun.star.drawing.PolyPolygonShape">
  <g id="id9">
   <rect class="BoundingBox" stroke="none" fill="none" x="854" y="1068" width="339" height="331"/>
   <path fill="none" stroke="rgb(35,31,32)" stroke-width="43" stroke-linejoin="round" d="M 1170,1376 L 876,1376 876,1090 1170,1090 1170,1376 Z"/>
  </g>
 </g>
 <g class="com.sun.star.drawing.PolyPolygonShape">
  <g id="id10">
   <rect class="BoundingBox" stroke="none" fill="none" x="854" y="1353" width="45" height="45"/>
  </g>
 </g>
 <g class="com.sun.star.drawing.LineShape">
  <g id="id11">
   <rect class="BoundingBox" stroke="none" fill="none" x="710" y="1353" width="334" height="195"/>
   <path fill="none" stroke="rgb(35,31,32)" stroke-width="43" stroke-linejoin="round" d="M 732,1375 L 1021,1525"/>
  </g>
 </g>
 <g class="com.sun.star.drawing.OpenBezierShape">
  <g id="id12">
   <rect class="BoundingBox" stroke="none" fill="none" x="938" y="1135" width="157" height="174"/>
   <path fill="none" stroke="rgb(35,31,32)" stroke-width="25" stroke-linejoin="round" d="M 951,1227 L 959,1214 971,1201 984,1201 994,1206 994,1224 984,1257 984,1278 994,1290 1002,1295 1015,1295 1027,1290 1040,1270 1048,1257 1058,1237 1060,1201 1060,1178 1058,1158 1040,1148 1027,1148 C 1012,1201 1035,1227 1081,1250"/>
  </g>
 </g>
 <g class="com.sun.star.drawing.PolyLineShape">
  <g id="id13">
   <rect class="BoundingBox" stroke="none" fill="none" x="1000" y="1353" width="334" height="195"/>
   <path fill="none" stroke="rgb(35,31,32)" stroke-width="43" stroke-linejoin="round" d="M 1022,1375 L 1022,1525 1311,1375"/>
  </g>
 </g>
 <g class="com.sun.star.drawing.OpenBezierShape">
  <g id="id14">
   <rect class="BoundingBox" stroke="none" fill="none" x="1790" y="258" width="1848" height="578"/>
   <path fill="none" stroke="rgb(35,31,32)" stroke-width="43" stroke-linejoin="round" d="M 1812,280 C 1812,409 1898,551 1961,659 2047,781 2193,743 2325,760 2585,775 2845,783 3105,788 3178,786 3238,791 3307,793 3342,791 3339,801 3377,798 L 3377,813 3445,813 3445,793 C 3461,781 3473,798 3501,781 3534,773 3544,735 3552,705 3577,563 3599,422 3615,280"/>
  </g>
 </g>
 <g class="com.sun.star.drawing.PolyLineShape">
  <g id="id15">
   <rect class="BoundingBox" stroke="none" fill="none" x="1759" y="258" width="1906" height="697"/>
   <path fill="none" stroke="rgb(35,31,32)" stroke-width="43" stroke-linejoin="round" d="M 1781,280 L 1781,932 3642,932 3642,280"/>
  </g>
 </g>
 <g class="com.sun.star.drawing.PolyPolygonShape">
  <g id="id16">
   <rect class="BoundingBox" stroke="none" fill="none" x="2501" y="49" width="384" height="200"/>
   <path fill="none" stroke="rgb(35,31,32)" stroke-width="43" stroke-linejoin="round" d="M 2786,226 L 2751,134 2844,134 2852,124 2857,117 2862,104 2857,86 2852,79 2844,71 2546,71 2533,79 2528,86 2523,104 2528,117 2533,124 2546,134 2634,134 2604,226 2786,226 Z"/>
  </g>
 </g>
 <g class="com.sun.star.drawing.PolyPolygonShape">
  <g id="id17">
   <rect class="BoundingBox" stroke="none" fill="none" x="1742" y="220" width="1936" height="84"/>
   <path fill="none" stroke="rgb(35,31,32)" stroke-width="43" stroke-linejoin="round" d="M 1764,281 L 3655,281 3655,242 1764,242 1764,281 Z"/>
  </g>
 </g>
 <g class="com.sun.star.drawing.PolyPolygonShape">
  <g id="id18">
   <rect class="BoundingBox" stroke="none" fill="none" x="3632" y="258" width="45" height="45"/>
  </g>
 </g>
 <g class="com.sun.star.drawing.PolyPolygonShape">
  <g id="id19">
   <rect class="BoundingBox" stroke="none" fill="none" x="2335" y="18" width="172" height="172"/>
   <path fill="none" stroke="rgb(35,31,32)" stroke-width="43" stroke-linejoin="round" d="M 2484,104 L 2477,73 2451,48 2421,40 2388,48 2365,73 2357,104 2365,137 2388,160 2421,167 2451,160 2477,137 2484,104 Z"/>
  </g>
 </g>
 <g class="com.sun.star.drawing.PolyPolygonShape">
  <g id="id20">
   <rect class="BoundingBox" stroke="none" fill="none" x="4578" y="657" width="172" height="172"/>
   <path fill="none" stroke="rgb(35,31,32)" stroke-width="43" stroke-linejoin="round" d="M 4727,743 L 4717,710 4692,687 4664,679 4628,687 4608,710 4600,743 4608,773 4628,799 4664,806 4692,799 4717,773 4727,743 Z"/>
  </g>
 </g>
 <g class="com.sun.star.drawing.PolyPolygonShape">
  <g id="id21">
   <rect class="BoundingBox" stroke="none" fill="none" x="4308" y="-2" width="303" height="339"/>
   <path fill="none" stroke="rgb(35,31,32)" stroke-width="43" stroke-linejoin="round" d="M 4330,314 L 4495,314 4444,230 4545,71 4558,86 4588,45 4517,20 4330,314 Z"/>
  </g>
 </g>
 <g class="com.sun.star.drawing.PolyPolygonShape">
  <g id="id22">
   <rect class="BoundingBox" stroke="none" fill="none" x="4217" y="152" width="160" height="160"/>
   <path fill="none" stroke="rgb(35,31,32)" stroke-width="43" stroke-linejoin="round" d="M 4290,174 L 4354,238 4328,289 4239,263 4290,174 Z"/>
  </g>
 </g>
 <g class="com.sun.star.drawing.PolyPolygonShape">
  <g id="id23">
   <rect class="BoundingBox" stroke="none" fill="none" x="4452" y="152" width="160" height="160"/>
   <path fill="none" stroke="rgb(35,31,32)" stroke-width="43" stroke-linejoin="round" d="M 4538,174 L 4474,238 4499,289 4589,263 4538,174 Z"/>
  </g>
 </g>
 <g class="com.sun.star.drawing.LineShape">
  <g id="id24">
   <rect class="BoundingBox" stroke="none" fill="none" x="1288" y="1502" width="4345" height="45"/>
   <path fill="none" stroke="rgb(35,31,32)" stroke-width="43" stroke-linejoin="round" d="M 1310,1524 L 5610,1524"/>
  </g>
 </g>
 <g class="com.sun.star.drawing.LineShape">
  <g id="id25">
   <rect class="BoundingBox" stroke="none" fill="none" x="4131" y="783" width="45" height="764"/>
   <path fill="none" stroke="rgb(35,31,32)" stroke-width="43" stroke-linejoin="round" d="M 4153,805 L 4153,1524"/>
  </g>
 </g>
 <g class="com.sun.star.drawing.LineShape">
  <g id="id26">
   <rect class="BoundingBox" stroke="none" fill="none" x="2398" y="145" width="45" height="1403"/>
   <path fill="none" stroke="rgb(35,31,32)" stroke-width="43" stroke-linejoin="round" d="M 2420,167 L 2420,1525"/>
  </g>
 </g>
 <g class="com.sun.star.drawing.LineShape">
  <g id="id27">
   <rect class="BoundingBox" stroke="none" fill="none" x="-2" y="1502" width="759" height="45"/>
   <path fill="none" stroke="rgb(35,31,32)" stroke-width="43" stroke-linejoin="round" d="M 734,1524 L 20,1524"/>
  </g>
 </g>
 <g class="com.sun.star.drawing.LineShape">
  <g id="id28">
   <rect class="BoundingBox" stroke="none" fill="none" x="2943" y="145" width="45" height="847"/>
   <path fill="none" stroke="rgb(35,31,32)" stroke-width="43" stroke-linejoin="round" d="M 2965,167 L 2965,969"/>
  </g>
 </g>
 <g class="com.sun.star.drawing.LineShape">
  <g id="id29">
   <rect class="BoundingBox" stroke="none" fill="none" x="3120" y="1124" width="986" height="45"/>
   <path fill="none" stroke="rgb(35,31,32)" stroke-width="43" stroke-linejoin="round" d="M 3142,1146 L 4083,1146"/>
  </g>
 </g>
 <g class="com.sun.star.drawing.LineShape">
  <g id="id30">
   <rect class="BoundingBox" stroke="none" fill="none" x="4641" y="783" width="45" height="386"/>
   <path fill="none" stroke="rgb(35,31,32)" stroke-width="43" stroke-linejoin="round" d="M 4663,805 L 4663,1146"/>
  </g>
 </g>
 <g class="com.sun.star.drawing.PolyPolygonShape">
  <g id="id31">
   <rect class="BoundingBox" stroke="none" fill="none" x="4641" y="1124" width="45" height="45"/>
  </g>
 </g>
 <g class="com.sun.star.drawing.LineShape">
  <g id="id32">
   <rect class="BoundingBox" stroke="none" fill="none" x="4199" y="1124" width="1435" height="45"/>
   <path fill="none" stroke="rgb(35,31,32)" stroke-width="43" stroke-linejoin="round" d="M 5611,1146 L 4221,1146"/>
  </g>
 </g>
 <g class="com.sun.star.drawing.OpenBezierShape">
  <g id="id33">
   <rect class="BoundingBox" stroke="none" fill="none" x="2943" y="947" width="223" height="223"/>
   <path fill="none" stroke="rgb(35,31,32)" stroke-width="43" stroke-linejoin="round" d="M 2965,969 C 2968,1068 3044,1144 3143,1147"/>
  </g>
 </g>
</svg>